<?xml version="1.0" encoding="UTF-8"?>
<svg width="963px" height="964px" viewBox="0 0 963 964" version="1.1" xmlns="http://www.w3.org/2000/svg" xmlns:xlink="http://www.w3.org/1999/xlink">
    <!-- Generator: Sketch 50.2 (55047) - http://www.bohemiancoding.com/sketch -->
    <title>Staffomatic Logo colored@2x</title>
    <desc>Created with Sketch.</desc>
    <defs></defs>
    <g id="Page-1" stroke="none" stroke-width="1" fill="none" fill-rule="evenodd">
        <g id="App-Icon" transform="translate(-30.000000, -30.000000)">
            <g id="Staffomatic-Logo-colored" transform="translate(511.500000, 512.000000) rotate(-45.000000) translate(-511.500000, -512.000000) translate(143.000000, 186.000000)">
                <path d="M23.6111111,0 L401.388889,0 C414.428945,-2.40105582e-15 425,10.5959276 425,23.6666667 L425,118.333333 C425,131.404072 414.428945,142 401.388889,142 L23.6111111,142 C10.5710545,142 1.59694636e-15,131.404072 0,118.333333 L0,23.6666667 C-1.59694636e-15,10.5959276 10.5710545,2.40105582e-15 23.6111111,0 Z" id="Rectangle-Copy-75" fill="#68E5D7"></path>
                <path d="M478.009994,0 L712.990006,0 C726.250359,-2.40105582e-15 737,10.5959276 737,23.6666667 L737,118.333333 C737,131.404072 726.250359,142 712.990006,142 L478.009994,142 C464.749641,142 454,131.404072 454,118.333333 L454,23.6666667 C454,10.5959276 464.749641,2.40105582e-15 478.009994,0 Z" id="Rectangle-Copy-107" fill="#22C4CA"></path>
                <path d="M365.378938,170 L484.621062,170 C498.637462,170 510,180.595928 510,193.666667 L510,288.333333 C510,301.404072 498.637462,312 484.621062,312 L365.378938,312 C351.362538,312 340,301.404072 340,288.333333 L340,193.666667 C340,180.595928 351.362538,170 365.378938,170 Z" id="Rectangle-Copy-82" fill="#FFD369"></path>
                <path d="M252.378938,340 L371.621062,340 C385.637462,340 397,350.595928 397,363.666667 L397,458.333333 C397,471.404072 385.637462,482 371.621062,482 L252.378938,482 C238.362538,482 227,471.404072 227,458.333333 L227,363.666667 C227,350.595928 238.362538,340 252.378938,340 Z" id="Rectangle-Copy-83" fill="#FF869A"></path>
                <path d="M335.611111,510 L713.388889,510 C726.428945,510 737,520.595928 737,533.666667 L737,628.333333 C737,641.404072 726.428945,652 713.388889,652 L335.611111,652 C322.571055,652 312,641.404072 312,628.333333 L312,533.666667 C312,520.595928 322.571055,510 335.611111,510 Z" id="Rectangle-Copy-88" fill="#9157EC"></path>
                <path d="M24.0099943,510 L258.990006,510 C272.250359,510 283,520.595928 283,533.666667 L283,628.333333 C283,641.404072 272.250359,652 258.990006,652 L24.0099943,652 C10.7496406,652 1.62392497e-15,641.404072 0,628.333333 L0,533.666667 C-1.62392497e-15,520.595928 10.7496406,510 24.0099943,510 Z" id="Rectangle-Copy-108" fill="#B23CE9"></path>
                <path d="M23.7514866,170 L288.248513,170 C301.366097,170 312,180.595928 312,193.666667 L312,288.333333 C312,301.404072 301.366097,312 288.248513,312 L23.7514866,312 C10.6339028,312 1.60644071e-15,301.404072 0,288.333333 L0,193.666667 C-1.60644071e-15,180.595928 10.6339028,170 23.7514866,170 Z" id="Rectangle-Copy-91" fill="#FF9969"></path>
                <path d="M444.073381,340 L717.926619,340 C728.460557,340 737,350.595928 737,363.666667 L737,458.333333 C737,471.404072 728.460557,482 717.926619,482 L444.073381,482 C433.539443,482 425,471.404072 425,458.333333 L425,363.666667 C425,350.595928 433.539443,340 444.073381,340 Z" id="Rectangle-Copy-98" fill="#E93C80"></path>
            </g>
        </g>
    </g>
</svg>